# xmcd
#
# Track frame offsets:
#	150
#	17371
#	32507
#	50298
#	67039
#	82430
#	94281
#	110932
#	127028
#	145119
#
# Disc length: 2151 seconds
#
# Revision: 1
# Processed by: cddbd v1.5.1PL2 Copyright (c) Steve Scherf et al.
# Submitted via: audiograbber 1.83.01
#
DISCID=8e08650a
DTITLE=Juice Newton - Can't Wait All Night 
DYEAR=1984
DGENRE=Country
TTITLE0=A Little Love
TTITLE1=(You Don't Hear) The One That Gets You
TTITLE2=Can't Wait All Night
TTITLE3=Restless Heart
TTITLE4=Easy Way Out
TTITLE5=Let's Dance
TTITLE6=He's Gone
TTITLE7=You Don't Know Me
TTITLE8=Eye Of The Hurricane
TTITLE9=Waiting For The Sun
EXTD=
EXTT0=
EXTT1=
EXTT2=
EXTT3=
EXTT4=
EXTT5=
EXTT6=
EXTT7=
EXTT8=
EXTT9=
PLAYORDER=
